<?xml version="1.0" standalone="no"?>
<!DOCTYPE svg PUBLIC "-//W3C//DTD SVG 20010904//EN"
 "http://www.w3.org/TR/2001/REC-SVG-20010904/DTD/svg10.dtd">
<svg version="1.0" xmlns="http://www.w3.org/2000/svg"
 width="30pt" height="30pt" viewBox="0 0 300.000000 300.000000"
 preserveAspectRatio="xMidYMid meet">

<g transform="translate(0.000000,301.000000) scale(0.100000,-0.100000)"
fill="#000000" stroke="none">
<path d="M2135 2355 c-57 -38 -117 -64 -224 -95 -122 -36 -162 -96 -196 -292
-16 -93 -44 -188 -56 -188 -18 0 -40 44 -58 120 -51 204 -111 253 -336 280
-49 6 -128 20 -174 31 -66 17 -85 18 -91 8 -5 -7 5 -49 22 -98 74 -210 155
-333 243 -367 58 -22 248 -16 272 9 31 31 6 37 -121 30 -115 -6 -126 -5 -159
16 -43 26 -75 67 -114 146 -37 74 -87 205 -80 211 2 2 16 0 31 -6 15 -5 82
-17 149 -26 156 -20 193 -31 233 -71 31 -30 68 -113 81 -178 l6 -30 -24 18
c-13 9 -57 34 -96 54 -58 30 -75 35 -85 25 -21 -21 1 -40 102 -93 120 -62 174
-116 184 -182 11 -70 2 -87 -44 -87 -21 0 -67 -9 -102 -20 -90 -27 -146 -91
-163 -182 -9 -46 -16 -52 -85 -68 -124 -29 -177 -74 -200 -170 -10 -41 -16
-48 -48 -60 -51 -18 -103 -55 -216 -153 -89 -78 -149 -125 -359 -280 -77 -57
-77 -58 -63 -85 50 -95 276 -448 288 -450 9 -2 67 29 129 69 63 39 159 100
214 134 l100 63 90 -19 c125 -26 258 -34 325 -20 30 6 107 36 170 65 89 42
137 58 214 70 176 30 248 66 354 177 173 182 287 419 238 493 -19 30 -84 50
-129 41 -88 -17 -139 -52 -199 -133 -59 -81 -91 -107 -172 -141 -75 -31 -249
-71 -310 -71 l-37 0 16 30 c33 63 8 171 -46 197 -35 16 -288 43 -413 43 -119
0 -112 -5 -85 66 12 34 59 61 145 85 43 12 85 24 93 28 8 4 21 34 28 66 18 80
45 119 101 147 40 19 63 23 147 23 117 0 141 -9 225 -86 65 -59 79 -66 184
-84 89 -16 112 -32 161 -114 33 -55 48 -66 64 -47 16 19 -57 134 -106 169 -27
20 -59 31 -108 38 -97 13 -101 15 -166 75 -59 54 -111 86 -162 98 l-29 7 7 72
c13 125 38 189 104 260 33 34 93 87 135 117 41 30 78 61 81 68 7 18 -3 32 -22
32 -20 0 -199 -134 -207 -155 -10 -27 -27 -16 -20 13 35 158 61 191 177 222
45 12 113 38 151 57 37 19 71 32 74 29 9 -9 -15 -143 -38 -219 -36 -116 -104
-170 -250 -198 -73 -13 -91 -24 -83 -46 7 -19 71 -12 166 17 129 40 191 115
227 275 21 96 39 224 32 243 -6 20 -35 12 -87 -23z m296 -1215 c67 -36 -63
-294 -231 -461 -86 -85 -163 -123 -290 -144 -102 -16 -196 -46 -246 -76 -17
-10 -62 -31 -100 -45 -64 -24 -77 -26 -184 -21 -63 3 -155 15 -204 25 l-89 20
-61 -38 c-34 -20 -126 -78 -205 -129 -79 -50 -149 -91 -155 -91 -6 0 -22 19
-35 43 -13 23 -69 114 -123 202 l-100 160 24 17 c178 130 322 242 408 318 121
107 184 140 285 150 119 12 441 -16 471 -41 26 -21 38 -83 23 -115 -24 -49
-85 -71 -269 -94 -91 -12 -169 -26 -174 -30 -5 -5 -6 -16 -2 -25 7 -19 53 -16
236 11 52 7 151 18 220 24 153 12 261 33 361 71 88 34 148 82 204 164 63 91
171 139 236 105z"/>
</g>
</svg>
