<?xml version="1.0" encoding="UTF-8"?>
<svg version="1.1" xmlns="http://www.w3.org/2000/svg" width="310" height="271">
<path d="M0 0 C102.3 0 204.6 0 310 0 C310 89.43 310 178.86 310 271 C207.7 271 105.4 271 0 271 C0 181.57 0 92.14 0 0 Z " fill="#FDFDFD" transform="translate(0,0)"/>
<path d="M0 0 C0.99 0.66 1.98 1.32 3 2 C3.67437255 8.17513692 2.51371565 12.22214494 -0.375 17.625 C-0.73150635 18.31158691 -1.0880127 18.99817383 -1.45532227 19.70556641 C-10.44980585 36.53320581 -23.10893184 53.9170792 -41.8203125 60.171875 C-46.38501615 61.36071674 -50.99800782 62.1022099 -55.65039062 62.86083984 C-64.62016742 64.36181456 -72.48716372 66.80097463 -80.10546875 71.828125 C-92.14644567 79.27615196 -108.74378835 76.35551361 -122 74 C-123.485 73.505 -123.485 73.505 -125 73 C-133.31278225 72.00591343 -138.3836738 73.54036214 -145.125 78.3125 C-146.32890381 79.11651245 -146.32890381 79.11651245 -147.55712891 79.93676758 C-149.22135779 81.04957173 -150.87877236 82.17263287 -152.52929688 83.30566406 C-155.70976806 85.48673818 -158.92120142 87.61736165 -162.14794922 89.72924805 C-163.59876243 90.67922692 -165.04347915 91.63860331 -166.48095703 92.60864258 C-169.96421354 94.91205869 -172.73873619 96.58045472 -177 97 C-177.54140625 95.87078125 -178.0828125 94.7415625 -178.640625 93.578125 C-181.04625688 88.77108906 -183.85245148 84.2726993 -186.75 79.75 C-187.2749707 78.92459717 -187.79994141 78.09919434 -188.34082031 77.2487793 C-192.47232242 70.77293402 -196.68638672 64.35623604 -201 58 C-199.48679026 53.78599819 -196.43816774 51.90226156 -192.875 49.5 C-191.60562652 48.61752916 -190.33744447 47.73334264 -189.0703125 46.84765625 C-188.40547852 46.38504395 -187.74064453 45.92243164 -187.05566406 45.44580078 C-183.57809141 42.99993555 -180.15791323 40.47924205 -176.75 37.9375 C-176.07807617 37.43637695 -175.40615234 36.93525391 -174.71386719 36.41894531 C-169.81381702 32.7180229 -165.2616672 28.79250898 -160.8203125 24.546875 C-159 23 -159 23 -157 23 C-157 22.34 -157 21.68 -157 21 C-155.1640625 19.23046875 -155.1640625 19.23046875 -152.625 17.1875 C-151.40683594 16.18783203 -151.40683594 16.18783203 -150.1640625 15.16796875 C-141.55131451 9.26664142 -135.0918479 7.25478995 -124.625 7.625 C-123.49537842 7.64570557 -122.36575684 7.66641113 -121.2019043 7.68774414 C-117.79947481 7.7604118 -114.40079627 7.87296597 -111 8 C-109.99759277 8.03432129 -108.99518555 8.06864258 -107.96240234 8.10400391 C-85.47985316 8.91477435 -85.47985316 8.91477435 -82.125 11.375 C-79.51108278 15.15065821 -79.26405676 19.57568242 -80 24 C-83.55548118 29.16118236 -88.18413597 30.50306025 -94 32 C-98.95960361 32.89114832 -103.93969919 33.55006337 -108.9375 34.1875 C-110.27679638 34.36575926 -111.61599026 34.5447904 -112.95507812 34.72460938 C-122.59190999 36 -122.59190999 36 -125 36 C-125 37.32 -125 38.64 -125 40 C-123.02043559 39.85966889 -121.04134859 39.7125877 -119.0625 39.5625 C-117.96035156 39.48128906 -116.85820313 39.40007812 -115.72265625 39.31640625 C-113.08890097 39.29581916 -113.08890097 39.29581916 -112 38 C-108.04524793 37.33382635 -104.04701212 36.94950778 -100.0625 36.5 C-98.87479004 36.36182861 -97.68708008 36.22365723 -96.46337891 36.08129883 C-90.6196663 35.4244842 -84.83180741 34.88501772 -78.95336914 34.73950195 C-63.24108126 34.34637176 -41.95517885 31.10187781 -29.94921875 20.125 C-28.15597441 18.1589591 -26.56364416 16.15202572 -25 14 C-18.01276036 4.48766881 -12.41029347 -0.81378974 0 0 Z " fill="#FBFBFB" transform="translate(237,154)"/>
<path d="M0 0 C0.52344818 14.91827311 -0.90648652 33.49408774 -11.0859375 45.16796875 C-19.8479436 53.5544603 -30.25014959 55.4234422 -42 56 C-42 54.68 -42 53.36 -42 52 C-40.15535156 51.51080078 -40.15535156 51.51080078 -38.2734375 51.01171875 C-36.64053454 50.57064726 -35.00772703 50.12922228 -33.375 49.6875 C-32.56675781 49.47416016 -31.75851563 49.26082031 -30.92578125 49.04101562 C-23.78130867 47.09516334 -17.78891219 44.92312824 -13 39 C-7.89427732 29.57264776 -6.71254941 18.43534779 -5 8 C-5.8971875 8.44730469 -6.794375 8.89460938 -7.71875 9.35546875 C-15.2369519 13.02449783 -22.67731939 16.0708479 -30.71875 18.40112305 C-35.57253814 19.72030802 -35.57253814 19.72030802 -40 22 C-43.25052579 27.91595694 -43.95471657 35.42086312 -45 42 C-44.13375 41.05125 -43.2675 40.1025 -42.375 39.125 C-38.78077086 35.52337533 -34.8656134 32.53188594 -30.75 29.5625 C-30.13560059 29.11342285 -29.52120117 28.6643457 -28.88818359 28.20166016 C-24.36914138 25 -24.36914138 25 -21 25 C-21.23980866 28.59712995 -21.73816362 29.76624702 -24.4765625 32.2109375 C-25.51554688 32.92507812 -26.55453125 33.63921875 -27.625 34.375 C-32.0765447 37.51038409 -36.02123689 40.75464047 -39.6953125 44.78515625 C-41 46 -41 46 -43 46 C-43.41958984 46.86625 -43.41958984 46.86625 -43.84765625 47.75 C-45 50 -45 50 -46.18359375 51.875 C-51.25543974 60.47027794 -51.86226426 70.26619613 -53 80 C-51.97205322 80.25257568 -51.97205322 80.25257568 -50.92333984 80.51025391 C-43.72764311 82.33563819 -38.34921077 85.32289447 -33.32421875 90.83984375 C-28.75491934 95.63203581 -24.92071097 96.6464845 -18.5625 97.5 C-9.38930122 98.73352101 -4.46069778 101.84716266 1.5 109 C3.1901287 112.38025739 3.69996929 115.24961608 4 119 C2.68 119 1.36 119 0 119 C-0.27972656 118.41992188 -0.55945313 117.83984375 -0.84765625 117.2421875 C-4.05485735 110.99278599 -7.41133614 105.48456772 -14.390625 103.2265625 C-17.64258606 102.53826399 -20.8100252 102.02828094 -24.13671875 101.94921875 C-28.78833407 101.77558281 -30.79356889 100.56032839 -33.875 97.3125 C-34.52726563 96.59578125 -35.17953125 95.8790625 -35.8515625 95.140625 C-43.58995484 87.43037227 -51.44079514 85.76217123 -61.91674805 85.74682617 C-67.76839333 85.83020195 -73.2680272 86.21379449 -77.57421875 90.60546875 C-79 92 -79 92 -81 92 C-81.25394531 93.13179688 -81.50789063 94.26359375 -81.76953125 95.4296875 C-82.11656252 96.91160483 -82.46425313 98.39336786 -82.8125 99.875 C-82.97814453 100.62136719 -83.14378906 101.36773437 -83.31445312 102.13671875 C-84.66015625 107.7734375 -84.66015625 107.7734375 -88 110 C-91.08371897 110.85241012 -94.16835922 111.6147108 -97.28710938 112.32421875 C-103.20397726 113.78122526 -107.57738841 115.86608261 -111 121 C-111.39013716 122.9896995 -111.73202649 124.99019869 -112 127 C-110.77667969 126.97679687 -109.55335937 126.95359375 -108.29296875 126.9296875 C-96.37767187 126.77466462 -84.81070759 127.45395132 -73 129 C-71.78570312 129.144375 -70.57140625 129.28875 -69.3203125 129.4375 C-59.61053778 130.76695571 -59.61053778 130.76695571 -56 135 C-55.00488494 138.01119232 -54.83657916 140.84081474 -54.8125 144 C-54.79832031 144.845625 -54.78414062 145.69125 -54.76953125 146.5625 C-55.01456904 149.15408616 -55.69415099 150.77024992 -57 153 C-42.36887734 153.29165029 -25.03848345 149.87251865 -13 141 C-11.06311012 138.65238816 -9.3873289 136.14714085 -7.6875 133.625 C-2.02304809 125.58128757 3.05181391 120.95410798 13 119 C17.42124549 118.4398032 20.42719309 118.68755987 24.4375 120.875 C26.93467031 122.94582416 27.73770032 123.73987987 28.37890625 126.8203125 C29.5254478 141.21306807 17.42774698 156.15277392 8.59472656 166.67382812 C-3.40709585 180.55170332 -14.36709981 188.24979197 -32.8125 191.4375 C-43.59759128 193.41433538 -52.752593 196.62998331 -62.58203125 201.37890625 C-63.70996094 201.91386719 -64.83789062 202.44882813 -66 203 C-66.78246094 203.39445313 -67.56492187 203.78890625 -68.37109375 204.1953125 C-72.32101777 205.40435314 -76.14120951 205.33795962 -80.25 205.3125 C-81.12736816 205.31048584 -82.00473633 205.30847168 -82.90869141 205.30639648 C-92.56976715 205.16096655 -101.83268375 203.47805511 -111.2109375 201.23046875 C-114.6855171 200.94335363 -115.57199117 201.58775584 -118.25 203.75 C-122.98012848 207.32800944 -127.86305795 210.44391505 -132.9375 213.5 C-138.95909662 217.13345438 -144.90297781 220.83002371 -150.73828125 224.7578125 C-153.1806958 226.09924225 -155.27444534 226.51193359 -158 227 C-174.50702171 200.63067762 -174.50702171 200.63067762 -179.41015625 192.5625 C-180.44518292 190.89425062 -181.51429738 189.24652336 -182.62109375 187.625 C-183.09675781 186.92375 -183.57242188 186.2225 -184.0625 185.5 C-184.46597656 184.9328125 -184.86945313 184.365625 -185.28515625 183.78125 C-186.41156595 180.97445862 -186.16369477 179.81845223 -185 177 C-182.64778419 174.65054085 -180.00472852 172.75382696 -177.3125 170.8125 C-176.54373535 170.24080078 -175.7749707 169.66910156 -174.98291016 169.08007812 C-170.88686215 166.04847757 -166.73508902 163.10066634 -162.55981445 160.1796875 C-162.00382568 159.79039062 -161.44783691 159.40109375 -160.875 159 C-160.31707764 158.60941406 -159.75915527 158.21882812 -159.18432617 157.81640625 C-152.03491925 152.72362177 -145.53857457 146.84179212 -139 141 C-132.39665952 135.1052606 -126.77730643 130.10655354 -118 128 C-117.90203125 127.41992188 -117.8040625 126.83984375 -117.703125 126.2421875 C-116.70180131 121.01113445 -115.72239911 116.98828476 -112 113 C-106.58783076 109.6264954 -101.46829588 106.97291111 -95.0625 106.5 C-92.83952822 106.26598942 -92.83952822 106.26598942 -91 105 C-89.37017371 101.57422187 -88.31816815 98.12491649 -87.21875 94.49609375 C-85.13906793 88.53033908 -82.00742919 85.5383624 -76.45703125 82.69921875 C-70.24211631 80.14838624 -64.67015341 79.47912034 -58 80 C-57.97865859 78.00000536 -58.01024228 75.99942571 -58.0625 74 C-58.07410156 72.88625 -58.08570313 71.7725 -58.09765625 70.625 C-59.89781453 63.39319529 -65.07598881 59.33194735 -71.27734375 55.59375 C-73.15537561 54.5467636 -75.04231263 53.5156028 -76.9375 52.5 C-77.90751953 51.96375 -78.87753906 51.4275 -79.87695312 50.875 C-82.24396293 49.56906356 -84.61782903 48.27800383 -87 47 C-86.67 45.68 -86.34 44.36 -86 43 C-83.00843299 43.63644122 -80.58061047 44.61952013 -77.890625 46.06640625 C-76.75947266 46.6706543 -76.75947266 46.6706543 -75.60546875 47.28710938 C-74.82816406 47.70798828 -74.05085938 48.12886719 -73.25 48.5625 C-72.45722656 48.98724609 -71.66445312 49.41199219 -70.84765625 49.84960938 C-68.89628933 50.89582417 -66.94720186 51.94605953 -65 53 C-65.878664 50.43043621 -66.77686889 47.87072773 -67.6875 45.3125 C-68.05391602 44.2306543 -68.05391602 44.2306543 -68.42773438 43.12695312 C-70.72501857 36.75853237 -74.35387015 32.76733147 -80 29 C-82.18515203 28.37547283 -82.18515203 28.37547283 -84.52734375 28.15625 C-85.39641357 28.04587402 -86.2654834 27.93549805 -87.16088867 27.82177734 C-88.07717041 27.71559082 -88.99345215 27.6094043 -89.9375 27.5 C-110.21333835 24.89333082 -110.21333835 24.89333082 -116 22 C-109.0826442 43.54663422 -109.0826442 43.54663422 -94.27734375 59.33984375 C-87.9036222 61.18745771 -81.38619581 60.29194422 -75 59 C-72.66698014 58.96175377 -70.33288492 58.95425716 -68 59 C-68.33 60.65 -68.66 62.3 -69 64 C-74.17896354 65.14429006 -79.15166885 65.25770562 -84.4375 65.3125 C-85.8306543 65.35600586 -85.8306543 65.35600586 -87.25195312 65.40039062 C-93.05259308 65.45406203 -96.45291412 64.95309718 -101 61 C-103.23046875 58.78125 -103.23046875 58.78125 -105.1875 56.5 C-105.84105469 55.7471875 -106.49460937 54.994375 -107.16796875 54.21875 C-108.07482422 53.12046875 -108.07482422 53.12046875 -109 52 C-109.51433594 51.401875 -110.02867188 50.80375 -110.55859375 50.1875 C-112.55176493 47.16263317 -113.67561949 43.89336924 -114.875 40.5 C-117.08928452 34.36641087 -119.50387126 28.38907699 -122.21484375 22.453125 C-123.06719186 19.79006722 -122.97068675 18.58045919 -122 16 C-117.52030448 16.59654237 -113.1539948 17.36620316 -108.75 18.375 C-103.74225732 19.48366603 -98.76591546 20.35469183 -93.68896484 21.078125 C-83.54332871 22.53570614 -74.97500548 23.7941112 -68 32 C-67.46375 32.598125 -66.9275 33.19625 -66.375 33.8125 C-63.2365203 38.80553589 -61.93716049 43.94061499 -61 49.6875 C-60.33084725 53.70799279 -59.60469711 56.74412861 -57 60 C-56.34 60.33 -55.68 60.66 -55 61 C-54.8453125 59.8553125 -54.8453125 59.8553125 -54.6875 58.6875 C-54.12542253 55.67272085 -53.4128833 52.87518775 -52.5625 49.9375 C-51.37899758 45.75541213 -50.62687162 41.68337265 -50.0625 37.375 C-48.84978436 28.99533373 -46.23308371 21.95605777 -40 16 C-35.20402494 13.13448031 -29.95840615 11.67054762 -24.625 10.125 C-16.59047909 7.74859241 -7.99196624 0 0 0 Z M-2.38671875 133.84765625 C-3.44605889 135.26096476 -4.49091867 136.68526694 -5.51953125 138.12109375 C-14.75257723 151.00837957 -30.31292302 154.80079653 -45.35302734 157.60205078 C-52.99768845 158.75135881 -60.7519251 159.08319543 -68.4609375 159.56640625 C-74.03673373 159.91701905 -79.57719938 160.40603453 -85.125 161.0625 C-85.82302734 161.14193848 -86.52105469 161.22137695 -87.24023438 161.30322266 C-90.40000276 161.48077395 -90.40000276 161.48077395 -93 163 C-95.01594582 163.23427778 -97.038474 163.41336124 -99.0625 163.5625 C-100.16722656 163.64628906 -101.27195312 163.73007813 -102.41015625 163.81640625 C-103.26480469 163.87699219 -104.11945313 163.93757813 -105 164 C-105 162.68 -105 161.36 -105 160 C-103.22109375 159.83564453 -103.22109375 159.83564453 -101.40625 159.66796875 C-80.83193771 158.30859052 -80.83193771 158.30859052 -62 151 C-59.53402749 147.30104124 -59.43102872 144.2923863 -60 140 C-61.15632746 137.63706998 -62.14983755 135.85016245 -64 134 C-72.90887376 132.44008047 -81.97931579 132.30885802 -91 132 C-92.09135254 131.9592334 -93.18270508 131.9184668 -94.30712891 131.87646484 C-97.74640044 131.76144722 -101.18441494 131.68806471 -104.625 131.625 C-106.24112183 131.56783813 -106.24112183 131.56783813 -107.88989258 131.50952148 C-117.92610441 131.40448322 -124.92056557 134.86497206 -132.625 141.1875 C-133.46289062 141.86167969 -134.30078125 142.53585938 -135.1640625 143.23046875 C-136.07285156 144.10638672 -136.07285156 144.10638672 -137 145 C-137 145.66 -137 146.32 -137 147 C-137.56976563 147.2475 -138.13953125 147.495 -138.7265625 147.75 C-141.36049981 149.19821295 -143.20180372 150.9232254 -145.375 153 C-149.80304419 157.05904051 -154.46045834 160.59997269 -159.37304688 164.03466797 C-164.28168982 167.46831967 -169.09032782 171.02076032 -173.875 174.625 C-174.93775146 175.42514526 -174.93775146 175.42514526 -176.02197266 176.24145508 C-177.68231067 177.49298372 -179.3413096 178.74628855 -181 180 C-179.3620272 184.80160026 -176.71555035 188.73938877 -173.9375 192.9375 C-172.94784024 194.45177297 -171.95825814 195.9660967 -170.96875 197.48046875 C-169.97947698 198.98718295 -168.98990208 200.49369901 -168 202 C-166.30659168 204.57953638 -164.61968218 207.16313247 -162.9375 209.75 C-161.86822266 211.38195312 -161.86822266 211.38195312 -160.77734375 213.046875 C-159.20360747 215.66169836 -158.02447399 218.13359609 -157 221 C-153.41399949 220.44043231 -150.89010223 219.56131123 -147.84765625 217.59375 C-147.07744141 217.10116699 -146.30722656 216.60858398 -145.51367188 216.10107422 C-144.3003418 215.30854248 -144.3003418 215.30854248 -143.0625 214.5 C-142.22654297 213.96262207 -141.39058594 213.42524414 -140.52929688 212.87158203 C-138.82875517 211.77740232 -137.13033395 210.67991979 -135.43408203 209.57910156 C-133.20966854 208.13602168 -130.97970482 206.70222515 -128.74609375 205.2734375 C-124.47921187 202.54280565 -120.21513898 199.81009265 -116 197 C-107.26882461 195.96564473 -98.10049255 197.61352442 -89.59375 199.546875 C-78.3159149 201.5170992 -66.72928663 200.68646747 -57.15625 194.01953125 C-53.76456191 191.84935459 -50.44989039 190.5739766 -46.625 189.4375 C-45.9345459 189.22552979 -45.2440918 189.01355957 -44.53271484 188.79516602 C-39.60914828 187.33725996 -34.68216326 186.30539003 -29.625 185.4375 C-10.66193222 182.10661176 -0.00420145 171.23030571 11.19140625 156.0234375 C21.00662642 142.1832626 21.00662642 142.1832626 23 126 C13.81619711 119.87746474 3.62128552 126.43087856 -2.38671875 133.84765625 Z " fill="#181817" transform="translate(217,30)"/>
<path d="M0 0 C0.83917969 0.18175781 1.67835937 0.36351562 2.54296875 0.55078125 C4.34701172 0.92783203 4.34701172 0.92783203 6.1875 1.3125 C7.17182007 1.51879028 7.17182007 1.51879028 8.17602539 1.72924805 C12.23658528 2.54678221 16.27511479 3.18239595 20.390625 3.65625 C21.30948486 3.76670654 22.22834473 3.87716309 23.17504883 3.9909668 C24.97727369 4.20073526 26.78195236 4.39065403 28.58862305 4.55786133 C35.08274321 5.33151568 39.31097078 7.40859994 44 12 C46.59184566 15.46122786 47.85872581 19.08917346 49.1875 23.1875 C49.53167969 24.23292969 49.87585938 25.27835938 50.23046875 26.35546875 C51 29 51 29 51 31 C45.68417026 29.02896201 40.89523807 26.22730738 35.9609375 23.4609375 C33.10189963 21.77876251 33.10189963 21.77876251 30 22 C30 22.99 30 23.98 30 25 C36.6 28.63 43.2 32.26 50 36 C50 36.99 50 37.98 50 39 C49.34 39.66 48.68 40.32 48 41 C48 39.68 48 38.36 48 37 C47.27296875 37.144375 46.5459375 37.28875 45.796875 37.4375 C26.56141764 40.98866136 26.56141764 40.98866136 19.25 36.8125 C9.11833054 28.97099091 2.05171027 12.4517589 0 0 Z " fill="#98BF5D" transform="translate(101,52)"/>
<path d="M0 0 C-0.38993802 11.73713427 -1.70313194 25.89649199 -10 35 C-12.19719207 36.73944372 -14.42859432 37.90329282 -17 39 C-17.98033203 39.42925781 -17.98033203 39.42925781 -18.98046875 39.8671875 C-23.25914639 41.60514167 -27.3549804 42.72676355 -32 43 C-32.99 42.34 -33.98 41.68 -35 41 C-35 40.34 -35 39.68 -35 39 C-35.99 38.67 -36.98 38.34 -38 38 C-31.29674057 32.00825973 -24.4903036 25.99353573 -17 21 C-16.27617533 18.94074861 -16.27617533 18.94074861 -16 17 C-23.11521054 19.92979257 -28.32185605 24.43060957 -34.046875 29.44140625 C-36.31234824 31.40421706 -38.57130995 33.24922101 -41 35 C-40.39513664 27.37872166 -39.6005259 20.23308625 -34.6875 14.125 C-29.06610264 9.68017418 -22.77762039 7.89493649 -16.00976562 5.98242188 C-12.45724326 4.92994881 -9.37406045 3.74306147 -6.18359375 1.83984375 C-3 0 -3 0 0 0 Z " fill="#96C15B" transform="translate(212,38)"/>
<path d="M0 0 C4.47969552 0.59654237 8.8460052 1.36620316 13.25 2.375 C18.25774268 3.48366603 23.23408454 4.35469183 28.31103516 5.078125 C38.45667129 6.53570614 47.02499452 7.7941112 54 16 C54.53625 16.598125 55.0725 17.19625 55.625 17.8125 C57.95473826 21.51890178 60.41105498 25.80770677 59.578125 30.25 C59.29195312 31.11625 59.29195312 31.11625 59 32 C58.566875 31.175 58.13375 30.35 57.6875 29.5 C57.130625 28.675 56.57375 27.85 56 27 C55.01 27 54.02 27 53 27 C52.4121875 25.4221875 52.4121875 25.4221875 51.8125 23.8125 C49.38466543 18.22283435 45.81200161 15.01005437 40.171875 12.68261719 C35.7777421 11.30154754 31.18931653 10.97766103 26.625 10.5 C19.38157812 9.73604535 12.81499059 8.63640951 6 6 C12.9173558 27.54663422 12.9173558 27.54663422 27.72265625 43.33984375 C34.0963778 45.18745771 40.61380419 44.29194422 47 43 C49.33301986 42.96175377 51.66711508 42.95425716 54 43 C53.67 44.65 53.34 46.3 53 48 C47.82103646 49.14429006 42.84833115 49.25770562 37.5625 49.3125 C36.63373047 49.34150391 35.70496094 49.37050781 34.74804688 49.40039062 C28.94740692 49.45406203 25.54708588 48.95309718 21 45 C18.76953125 42.78125 18.76953125 42.78125 16.8125 40.5 C16.15894531 39.7471875 15.50539063 38.994375 14.83203125 38.21875 C14.22746094 37.4865625 13.62289062 36.754375 13 36 C12.48566406 35.401875 11.97132812 34.80375 11.44140625 34.1875 C9.44823507 31.16263317 8.32438051 27.89336924 7.125 24.5 C4.91071548 18.36641087 2.49612874 12.38907699 -0.21484375 6.453125 C-1.06719186 3.79006722 -0.97068675 2.58045919 0 0 Z " fill="#1A1B18" transform="translate(95,46)"/>
<path d="M0 0 C0.99 0.33 1.98 0.66 3 1 C3 2.65 3 4.3 3 6 C4.32 6 5.64 6 7 6 C6.47731534 8.76276177 5.89130413 11.3260876 5 14 C4.34 14 3.68 14 3 14 C2.87625 14.639375 2.7525 15.27875 2.625 15.9375 C2.315625 16.9584375 2.315625 16.9584375 2 18 C1.34 18.33 0.68 18.66 0 19 C0.33 19.66 0.66 20.32 1 21 C-11.24354244 25.7601476 -11.24354244 25.7601476 -17 26 C-17.99 25.34 -18.98 24.68 -20 24 C-20 23.34 -20 22.68 -20 22 C-20.99 21.67 -21.98 21.34 -23 21 C-16.29674057 15.00825973 -9.4903036 8.99353573 -2 4 C-0.80767387 1.94996045 -0.80767387 1.94996045 0 0 Z " fill="#96C05A" transform="translate(197,55)"/>
<path d="M0 0 C5.97775581 0.37360974 10.77916819 4.57960035 14.6953125 8.84765625 C19.24133751 13.64850329 23.09404775 14.64846569 29.4375 15.5 C38.61069878 16.73352101 43.53930222 19.84716266 49.5 27 C51.1901287 30.38025739 51.69996929 33.24961608 52 37 C50.68 37 49.36 37 48 37 C47.72027344 36.41992188 47.44054687 35.83984375 47.15234375 35.2421875 C43.94514265 28.99278599 40.58866386 23.48456772 33.609375 21.2265625 C30.35741394 20.53826399 27.1899748 20.02828094 23.86328125 19.94921875 C19.21166593 19.77558281 17.20643111 18.56032839 14.125 15.3125 C13.47273438 14.59449219 12.82046875 13.87648438 12.1484375 13.13671875 C7.60266888 8.61574523 1.71174005 5.80346874 -4 3 C-2.68 2.67 -1.36 2.34 0 2 C0 1.34 0 0.68 0 0 Z " fill="#111111" transform="translate(169,112)"/>
<path d="M0 0 C0.28545428 8.13544686 -0.81603117 15.97649696 -2 24 C-2.33 24 -2.66 24 -3 24 C-3.495 20.04 -3.495 20.04 -4 16 C-4.66 16.66 -5.32 17.32 -6 18 C-5.67 14.7 -5.34 11.4 -5 8 C-5.94359375 8.47050781 -6.8871875 8.94101562 -7.859375 9.42578125 C-15.76959608 13.28934549 -23.29984475 16.29885232 -32 18 C-32.33 17.01 -32.66 16.02 -33 15 C-34.65 15.33 -36.3 15.66 -38 16 C-37 14 -37 14 -35.31689453 13.31738281 C-34.59614746 13.11467773 -33.87540039 12.91197266 -33.1328125 12.703125 C-31.93495117 12.35266113 -31.93495117 12.35266113 -30.71289062 11.99511719 C-29.85888672 11.74922852 -29.00488281 11.50333984 -28.125 11.25 C-19.28245663 8.5945915 -8.56800615 0 0 0 Z " fill="#191918" transform="translate(217,30)"/>
<path d="M0 0 C0.33 0 0.66 0 1 0 C1.51512521 5.89034476 0.20811426 9.13010437 -3.3125 13.6875 C-3.75891846 14.28691406 -4.20533691 14.88632813 -4.6652832 15.50390625 C-20.96955828 36.98985276 -20.96955828 36.98985276 -30 40 C-29.7215625 39.071875 -29.7215625 39.071875 -29.4375 38.125 C-28.76313824 35.95839822 -28.76313824 35.95839822 -30 34 C-29.40574219 33.58492187 -28.81148437 33.16984375 -28.19921875 32.7421875 C-20.29248746 26.8643997 -14.77245292 19.86518509 -9 12 C-8.58878906 11.44183594 -8.17757812 10.88367188 -7.75390625 10.30859375 C-5.97422108 7.88705492 -4.20935591 5.45593632 -2.4609375 3.01171875 C-1 1 -1 1 0 0 Z " fill="#171717" transform="translate(236,174)"/>
<path d="M0 0 C-0.39792654 11.97758897 -1.87841548 25.52906131 -10 35 C-10.99 35.66 -11.98 36.32 -13 37 C-13.99 36.67 -14.98 36.34 -16 36 C-15.01 35.34 -14.02 34.68 -13 34 C-12.67 33.01 -12.34 32.02 -12 31 C-11.34 31 -10.68 31 -10 31 C-9.896875 30.236875 -9.79375 29.47375 -9.6875 28.6875 C-8.92629473 25.71187939 -8.0965041 25.0965041 -6 23 C-4.54020643 18.48791079 -4.90799048 13.69248542 -5 9 C-5.67417969 9.16371094 -6.34835938 9.32742187 -7.04296875 9.49609375 C-10.51367906 10.0875358 -13.79322124 10.09539046 -17.3125 10.0625 C-18.56675781 10.05347656 -19.82101563 10.04445313 -21.11328125 10.03515625 C-22.06589844 10.02355469 -23.01851562 10.01195312 -24 10 C-21.54473513 7.54473513 -19.62334652 7.13030095 -16.3125 6.125 C-12.61240893 4.94487503 -9.26311819 3.76249856 -5.9375 1.75 C-3 0 -3 0 0 0 Z " fill="#A1BB7C" transform="translate(212,38)"/>
<path d="M0 0 C6.97986313 0.31021614 12.07291522 3.4951958 18 7 C18 7.99 18 8.98 18 10 C17.34 10.66 16.68 11.32 16 12 C16 10.68 16 9.36 16 8 C15.27296875 8.144375 14.5459375 8.28875 13.796875 8.4375 C6.5897386 9.76804826 -0.66652521 10.81217636 -8 10 C-8.66 9.34 -9.32 8.68 -10 8 C-10 7.34 -10 6.68 -10 6 C-8.02 6 -6.04 6 -4 6 C-3.67 4.68 -3.34 3.36 -3 2 C-1.68 2 -0.36 2 1 2 C0.67 1.34 0.34 0.68 0 0 Z " fill="#90B45E" transform="translate(133,81)"/>
<path d="M0 0 C6.34886094 -0.1086307 12.50943896 0.03832711 18.80859375 0.87890625 C21.00693966 1.12203407 21.00693966 1.12203407 23.06640625 0.3984375 C25 0 25 0 26.78125 0.78515625 C32.99566747 5.40359833 37.33616277 11.31835896 39 19 C38.57421875 21.2421875 38.57421875 21.2421875 38 23 C37.566875 22.175 37.13375 21.35 36.6875 20.5 C36.130625 19.675 35.57375 18.85 35 18 C34.01 18 33.02 18 32 18 C31.608125 16.948125 31.21625 15.89625 30.8125 14.8125 C28.34387194 9.12891446 24.74329629 6.02575879 19.02392578 3.66455078 C15.44309555 2.48879446 11.80027498 2.16161523 8.0625 1.8125 C6.89364258 1.6897168 6.89364258 1.6897168 5.70117188 1.56445312 C3.80179203 1.36635829 1.90101238 1.18176159 0 1 C0 0.67 0 0.34 0 0 Z " fill="#2B2A2B" transform="translate(116,55)"/>
<path d="M0 0 C1.36125 0.37125 1.36125 0.37125 2.75 0.75 C2.75 1.41 2.75 2.07 2.75 2.75 C5.225 3.245 5.225 3.245 7.75 3.75 C6.76 4.41 5.77 5.07 4.75 5.75 C-1.64330107 10.335825 -7.97521366 15.00345675 -14.25 19.75 C-13.99337755 18.30989519 -13.71909179 16.8729313 -13.4375 15.4375 C-13.28667969 14.63699219 -13.13585937 13.83648437 -12.98046875 13.01171875 C-12.16499244 10.48679476 -11.33046329 9.36930266 -9.25 7.75 C-8.59 7.75 -7.93 7.75 -7.25 7.75 C-7.25 6.43 -7.25 5.11 -7.25 3.75 C-4.9226591 0.43801487 -4.11688305 -0.31668331 0 0 Z " fill="#92BA59" transform="translate(188.25,50.25)"/>
<path d="M0 0 C1.03382812 0.12826172 2.06765625 0.25652344 3.1328125 0.38867188 C4.74542969 0.60813477 4.74542969 0.60813477 6.390625 0.83203125 C7.45023438 0.95900391 8.50984375 1.08597656 9.6015625 1.21679688 C15.69921337 2.0073732 20.98661979 3.22041066 26.640625 5.64453125 C24.640625 7.64453125 24.640625 7.64453125 22.04614258 7.71972656 C20.97001709 7.63819336 19.8938916 7.55666016 18.78515625 7.47265625 C17.60501953 7.385 16.42488281 7.29734375 15.20898438 7.20703125 C13.34983398 7.05234375 13.34983398 7.05234375 11.453125 6.89453125 C9.62297852 6.76304688 9.62297852 6.76304688 7.75585938 6.62890625 C1.80863729 6.16372429 -3.71561842 5.61775577 -9.359375 3.64453125 C-9.359375 2.98453125 -9.359375 2.32453125 -9.359375 1.64453125 C-6.00699896 -0.4135917 -3.86624279 -0.48478174 0 0 Z " fill="#0F0D10" transform="translate(112.359375,49.35546875)"/>
<path d="M0 0 C0.83917969 0.18175781 1.67835937 0.36351562 2.54296875 0.55078125 C8.49210929 1.79417075 14.38826976 2.95948982 20.42578125 3.69140625 C21.34915283 3.80637451 22.27252441 3.92134277 23.22387695 4.03979492 C25.03942449 4.25901458 26.85706465 4.46169932 28.67651367 4.64575195 C34.80246534 5.39602267 38.25078273 7.03801712 43 11 C42.67 12.32 42.34 13.64 42 15 C40.88625 13.8553125 40.88625 13.8553125 39.75 12.6875 C29.82557223 4.6523555 14.07354248 6.29168596 2 6 C1.34 4.02 0.68 2.04 0 0 Z " fill="#E5EFD5" transform="translate(101,52)"/>
<path d="M0 0 C0.6875 1.75 0.6875 1.75 1 4 C-0.1875 6.25 -0.1875 6.25 -2 8 C-3.32 8 -4.64 8 -6 8 C-7.52299523 10.93720508 -8.80100302 13.9168649 -10 17 C-10.66 17 -11.32 17 -12 17 C-12 16.34 -12 15.68 -12 15 C-12.99 15.66 -13.98 16.32 -15 17 C-14.67 17.99 -14.34 18.98 -14 20 C-9.34462607 20.83796731 -5.62921525 21.0161692 -1 20 C-3.51366654 22.51366654 -5.44929412 22.86216425 -8.875 23.75 C-9.92429688 24.03359375 -10.97359375 24.3171875 -12.0546875 24.609375 C-15.22502294 25.02984389 -16.3855194 24.74298707 -19 23 C-19 22.34 -19 21.68 -19 21 C-19.99 20.67 -20.98 20.34 -22 20 C-15.29674057 14.00825973 -8.4903036 7.99353573 -1 3 C-0.67 2.01 -0.34 1.02 0 0 Z " fill="#94B562" transform="translate(196,56)"/>
<path d="M0 0 C0.8971875 0.309375 0.8971875 0.309375 1.8125 0.625 C1.1525 0.625 0.4925 0.625 -0.1875 0.625 C-0.3421875 1.5840625 -0.3421875 1.5840625 -0.5 2.5625 C-0.726875 3.243125 -0.95375 3.92375 -1.1875 4.625 C-2.1775 4.955 -3.1675 5.285 -4.1875 5.625 C-4.1875 6.945 -4.1875 8.265 -4.1875 9.625 C-5.5075 9.955 -6.8275 10.285 -8.1875 10.625 C-8.36925781 11.46804687 -8.55101562 12.31109375 -8.73828125 13.1796875 C-8.98964844 14.27539062 -9.24101562 15.37109375 -9.5 16.5 C-9.74363281 17.59054688 -9.98726562 18.68109375 -10.23828125 19.8046875 C-11.1875 22.625 -11.1875 22.625 -14.1875 24.625 C-13.57716947 16.93483538 -12.82497766 9.72403625 -7.6875 3.6875 C-2.66420251 -0.45672043 -2.66420251 -0.45672043 0 0 Z " fill="#A7BF7F" transform="translate(185.1875,48.375)"/>
<path d="M0 0 C4.84235642 1.13937798 7.00620859 3.94300282 9.7734375 7.82421875 C11.53861644 10.95544381 11.85135617 13.43254813 12 17 C10.68 17 9.36 17 8 17 C7.68546875 16.39671875 7.3709375 15.7934375 7.046875 15.171875 C4.34007412 10.06659617 4.34007412 10.06659617 0.625 5.6875 C0.08875 5.130625 -0.4475 4.57375 -1 4 C-0.75 1.75 -0.75 1.75 0 0 Z " fill="#1A1A1A" transform="translate(209,132)"/>
<path d="M0 0 C0.33 0 0.66 0 1 0 C1 4.29 1 8.58 1 13 C-0.134375 13.12375 -1.26875 13.2475 -2.4375 13.375 C-4.2009375 13.684375 -4.2009375 13.684375 -6 14 C-6.33 14.66 -6.66 15.32 -7 16 C-7.99 16 -8.98 16 -10 16 C-10 16.66 -10 17.32 -10 18 C-11.2375 18.433125 -12.475 18.86625 -13.75 19.3125 C-16.91596559 20.49131697 -19.43121425 21.75231247 -22 24 C-21.45275433 20.1692803 -19.71844729 18.63075544 -17 16 C-17 15.34 -17 14.68 -17 14 C-11.14856425 11.964718 -6.19539258 11.83026322 0 12 C0 8.04 0 4.08 0 0 Z " fill="#2A2A2A" transform="translate(159,98)"/>
<path d="M0 0 C0.66 0 1.32 0 2 0 C3.2052222 2.22109528 4.38887404 4.4497865 5.5625 6.6875 C5.90474609 7.31333984 6.24699219 7.93917969 6.59960938 8.58398438 C8.16044313 11.5952899 9.04450625 13.53847632 8.71484375 16.95703125 C8.47894531 17.63121094 8.24304688 18.30539063 8 19 C5 18 5 18 3.61328125 15.7421875 C1.11815218 10.24241352 -0.67361199 6.06250787 0 0 Z " fill="#111212" transform="translate(100,58)"/>
<path d="M0 0 C0 1.98 0 3.96 0 6 C-0.66 6 -1.32 6 -2 6 C-2.33 5.34 -2.66 4.68 -3 4 C-3.54269531 4.34933594 -4.08539063 4.69867188 -4.64453125 5.05859375 C-5.35996094 5.51363281 -6.07539063 5.96867187 -6.8125 6.4375 C-7.87404297 7.11619141 -7.87404297 7.11619141 -8.95703125 7.80859375 C-12.45808359 9.85031644 -15.21863735 10.11404367 -19.1875 10.0625 C-20.53908203 10.04896484 -20.53908203 10.04896484 -21.91796875 10.03515625 C-22.60503906 10.02355469 -23.29210937 10.01195312 -24 10 C-21.54473513 7.54473513 -19.62334652 7.13030095 -16.3125 6.125 C-12.61240893 4.94487503 -9.26311819 3.76249856 -5.9375 1.75 C-3 0 -3 0 0 0 Z " fill="#D7E0C7" transform="translate(212,38)"/>
<path d="M0 0 C-1.03620739 5.75670771 -2.81683406 8.26027001 -7.34375 11.93359375 C-9 13 -9 13 -11 13 C-11.33 13.66 -11.66 14.32 -12 15 C-13 12.4375 -13 12.4375 -13 9 C-10.06741808 5.56204595 -4.67582339 0 0 0 Z " fill="#1E1E1E" transform="translate(91,162)"/>
<path d="M0 0 C0.99 0.33 1.98 0.66 3 1 C2.57277981 3.88373626 1.91854696 5.09672548 0 7.375 C-2.25493962 10.33460826 -2.65973076 12.34210562 -3 16 C-2.01 16.33 -1.02 16.66 0 17 C-1.32 17 -2.64 17 -4 17 C-4.33 15.02 -4.66 13.04 -5 11 C-5.99 11.66 -6.98 12.32 -8 13 C-6.7943409 8.41261415 -5.82124748 4.86230986 -2.5 1.375 C-1.675 0.92125 -0.85 0.4675 0 0 Z " fill="#1F1F1F" transform="translate(108,141)"/>
<path d="M0 0 C5.3589909 0.33493693 9.10743856 3.57127181 13 7 C13.33 7.66 13.66 8.32 14 9 C10.97681132 9.98253632 8.89264332 10.42751117 5.9609375 9.0234375 C4.59913073 8.15126912 3.25401386 7.25231092 1.9296875 6.32421875 C0.01858607 5.01275441 -1.90767589 3.99036675 -4 3 C-2.68 2.67 -1.36 2.34 0 2 C0 1.34 0 0.68 0 0 Z " fill="#1C1C1C" transform="translate(169,112)"/>
<path d="M0 0 C3.38891322 0.68886787 6.18011613 1.98716486 9.25 3.5625 C10.14203125 4.01753906 11.0340625 4.47257812 11.953125 4.94140625 C12.96632812 5.46541016 12.96632812 5.46541016 14 6 C13.01 6.495 13.01 6.495 12 7 C11.67 7.99 11.34 8.98 11 10 C6.69235185 8.43358249 2.93828536 6.31663844 -1 4 C-0.67 2.68 -0.34 1.36 0 0 Z " fill="#121E0A" transform="translate(131,73)"/>
<path d="M0 0 C3.02276605 2.64143249 4.7039792 5.78990287 6.6875 9.25 C10.01368014 14.88803223 13.70949779 19.13061673 19 23 C17.375 23.8125 17.375 23.8125 15 24 C10.13746388 20.7370662 7.44492349 17.09062798 4.6875 12 C4.34138672 11.39671875 3.99527344 10.7934375 3.63867188 10.171875 C1.76668919 6.81471308 0.49912024 3.81935486 0 0 Z " fill="#E1EDD0" transform="translate(106,65)"/>
<path d="M0 0 C4.7063708 4.7063708 6.26136117 10.73905058 8 17 C8 17.66 8 18.32 8 19 C5.5625 18.1875 5.5625 18.1875 3 17 C2 14 2 14 2.125 11.5625 C2.24263437 8.91445587 2.24263437 8.91445587 0.4375 7 C-1 5 -1 5 -0.6875 2.25 C-0.460625 1.5075 -0.23375 0.765 0 0 Z " fill="#B1BDA1" transform="translate(144,64)"/>
<path d="M0 0 C0.6875 1.75 0.6875 1.75 1 4 C-0.1875 6.25 -0.1875 6.25 -2 8 C-3.32 8 -4.64 8 -6 8 C-7.52299523 10.93720508 -8.80100302 13.9168649 -10 17 C-10.66 17 -11.32 17 -12 17 C-12 16.34 -12 15.68 -12 15 C-13.65 15.66 -15.3 16.32 -17 17 C-12.89348547 11.70475758 -8.72032998 8.19028585 -3.07421875 4.578125 C-0.71791788 3.09296695 -0.71791788 3.09296695 0 0 Z " fill="#8AAF58" transform="translate(196,56)"/>
<path d="M0 0 C1.010625 0.804375 2.02125 1.60875 3.0625 2.4375 C2.7325 3.7575 2.4025 5.0775 2.0625 6.4375 C0.94875 5.2928125 0.94875 5.2928125 -0.1875 4.125 C-4.67269306 0.31150252 -10.30189622 -0.4408507 -15.9375 -1.5625 C-15.9375 -1.8925 -15.9375 -2.2225 -15.9375 -2.5625 C-9.93367648 -4.19990642 -5.07001577 -3.61558701 0 0 Z " fill="#E4EDD4" transform="translate(140.9375,60.5625)"/>
<path d="M0 0 C3.465 1.485 3.465 1.485 7 3 C6.67 3.99 6.34 4.98 6 6 C4.02 6.33 2.04 6.66 0 7 C0.99 8.485 0.99 8.485 2 10 C0.1875 10.6875 0.1875 10.6875 -2 11 C-3.75 9.5625 -3.75 9.5625 -5 8 C-3.046875 5.75390625 -3.046875 5.75390625 -1.09375 3.5078125 C0.19572458 2.04063579 0.19572458 2.04063579 0 0 Z " fill="#92B954" transform="translate(130,77)"/>
<path d="M0 0 C6.34886094 -0.1086307 12.50943896 0.03832711 18.80859375 0.87890625 C21.01983421 1.11222278 21.01983421 1.11222278 23.17578125 0.4375 C23.77777344 0.293125 24.37976563 0.14875 25 0 C26.75 1.4375 26.75 1.4375 28 3 C25 5 25 5 23.12402344 4.67211914 C22.07263184 4.33942017 22.07263184 4.33942017 21 4 C19.34160631 3.72921062 17.67969599 3.47946956 16.015625 3.24609375 C14.61376953 3.04790039 14.61376953 3.04790039 13.18359375 2.84570312 C12.21550781 2.71099609 11.24742188 2.57628906 10.25 2.4375 C9.26644531 2.29892578 8.28289062 2.16035156 7.26953125 2.01757812 C4.84661406 1.67648784 2.4234383 1.33736445 0 1 C0 0.67 0 0.34 0 0 Z " fill="#303131" transform="translate(116,55)"/>
<path d="M0 0 C2.55694972 3.83542457 2.04045639 5.65902533 1.625 10.1875 C1.45871094 12.09595703 1.45871094 12.09595703 1.2890625 14.04296875 C1.19367188 15.01878906 1.09828125 15.99460937 1 17 C0.67 17 0.34 17 0 17 C-0.33 14.36 -0.66 11.72 -1 9 C-1.66 9.66 -2.32 10.32 -3 11 C-2.25 3.375 -2.25 3.375 0 0 Z " fill="#1A1B17" transform="translate(214,37)"/>
<path d="M0 0 C0.33 0 0.66 0 1 0 C1 3.63 1 7.26 1 11 C0.34 11 -0.32 11 -1 11 C-1 11.66 -1 12.32 -1 13 C-1.66 13 -2.32 13 -3 13 C-3.31563182 7.73946963 -2.66590937 4.55426184 0 0 Z " fill="#090B08" transform="translate(213,45)"/>
<path d="M0 0 C0.33 0 0.66 0 1 0 C0.18081069 9.89494459 0.18081069 9.89494459 -2 14 C-2.99 14.495 -2.99 14.495 -4 15 C-3.63495936 9.33557626 -2.9445679 4.99296295 0 0 Z " fill="#BBC3AD" transform="translate(175,58)"/>
<path d="M0 0 C7.26 0 14.52 0 22 0 C22 0.33 22 0.66 22 1 C16.06 1.33 10.12 1.66 4 2 C4 3.65 4 5.3 4 7 C3.34 7 2.68 7 2 7 C1.34 4.69 0.68 2.38 0 0 Z " fill="#AAC482" transform="translate(103,58)"/>
<path d="M0 0 C3.96 0.33 7.92 0.66 12 1 C9 3 9 3 7 4 C7 4.99 7 5.98 7 7 C3.62934407 5.87644802 1.50812014 4.50812014 -1 2 C-0.67 1.34 -0.34 0.68 0 0 Z " fill="#9BBC66" transform="translate(186,47)"/>
<path d="M0 0 C6.36559573 0.49126929 12.69264693 0.99655747 19 2 C19 2.33 19 2.66 19 3 C16.58325776 3.02705308 14.1668206 3.04686438 11.75 3.0625 C10.72712891 3.07506836 10.72712891 3.07506836 9.68359375 3.08789062 C6.30657446 3.10428392 3.22708361 3.05628768 0 2 C0 1.34 0 0.68 0 0 Z " fill="#F7FBF2" transform="translate(104,54)"/>
<path d="M0 0 C2.4375 0.75 2.4375 0.75 4.4375 2.75 C3.7775 2.75 3.1175 2.75 2.4375 2.75 C2.1075 3.74 1.7775 4.73 1.4375 5.75 C-1.47767292 4.67598892 -3.34060176 3.97189824 -5.5625 1.75 C-2.5625 -0.25 -2.5625 -0.25 0 0 Z " fill="#0D1506" transform="translate(140.5625,77.25)"/>
<path d="M0 0 C-0.25 2.375 -0.25 2.375 -1 5 C-3.0625 6.3125 -3.0625 6.3125 -5 7 C-5 6.01 -5 5.02 -5 4 C-6.32 4.33 -7.64 4.66 -9 5 C-4.16129032 0 -4.16129032 0 0 0 Z " fill="#141F08" transform="translate(196,55)"/>
<path d="M0 0 C0.66 0.33 1.32 0.66 2 1 C1.67 1.33 1.34 1.66 1 2 C1.66 2.33 2.32 2.66 3 3 C1.63016497 6.16115776 1.0109362 6.9927092 -2 9 C-2.66 7.35 -3.32 5.7 -4 4 C-2.68 2.68 -1.36 1.36 0 0 Z " fill="#161F0B" transform="translate(179,65)"/>
<path d="M0 0 C0 1.98 0 3.96 0 6 C-0.66 6 -1.32 6 -2 6 C-2.33 5.34 -2.66 4.68 -3 4 C-4.98 4.99 -4.98 4.99 -7 6 C-7.99 5.34 -8.98 4.68 -10 4 C-3.375 0 -3.375 0 0 0 Z " fill="#C3CEB1" transform="translate(212,38)"/>
<path d="M0 0 C3.94139078 1.66751148 6.7892812 4.22710649 10 7 C8.375 7.8125 8.375 7.8125 6 8 C2.75 5.75 2.75 5.75 0 3 C0 2.01 0 1.02 0 0 Z " fill="#D3DFC4" transform="translate(115,81)"/>
<path d="M0 0 C0.99 0.33 1.98 0.66 3 1 C1.9802693 4.77300358 1.34127338 5.80206144 -2.125 7.8125 C-3.07375 8.204375 -4.0225 8.59625 -5 9 C-4.6875 7.125 -4.6875 7.125 -4 5 C-3.01 4.34 -2.02 3.68 -1 3 C-0.67 2.01 -0.34 1.02 0 0 Z " fill="#0F0F12" transform="translate(202,72)"/>
<path d="M0 0 C0.53625 0.2475 1.0725 0.495 1.625 0.75 C0.696875 1.3275 -0.23125 1.905 -1.1875 2.5 C-4.00645447 4.48985022 -5.42062867 6.01388013 -7.375 8.75 C-8.035 8.75 -8.695 8.75 -9.375 8.75 C-9.25 6.5 -9.25 6.5 -8.375 3.75 C-3.49815271 -0.3682266 -3.49815271 -0.3682266 0 0 Z " fill="#D6E1C4" transform="translate(185.375,48.25)"/>
<path d="M0 0 C1.6875 2 1.6875 2 3 4 C1.35 4.33 -0.3 4.66 -2 5 C-2 4.34 -2 3.68 -2 3 C-4.97 5.475 -4.97 5.475 -8 8 C-5.18918919 0 -5.18918919 0 0 0 Z " fill="#D6DCC9" transform="translate(177,77)"/>
<path d="M0 0 C0.66 0.33 1.32 0.66 2 1 C1.01 2.485 1.01 2.485 0 4 C0.33 4.66 0.66 5.32 1 6 C-0.32 6.33 -1.64 6.66 -3 7 C-3 6.01 -3 5.02 -3 4 C-4.32 3.67 -5.64 3.34 -7 3 C-4.69631264 1.93347808 -2.35981813 0.93578995 0 0 Z " fill="#2E2E30" transform="translate(201,37)"/>
<path d="M0 0 C0.66 0.33 1.32 0.66 2 1 C0.71451591 2.33929505 -0.57858155 3.67128643 -1.875 5 C-2.59429687 5.7425 -3.31359375 6.485 -4.0546875 7.25 C-6 9 -6 9 -8 9 C-6.4169423 4.7257442 -3.49431596 2.73468206 0 0 Z " fill="#BEBEBE" transform="translate(223,156)"/>
<path d="M0 0 C0.66 0.33 1.32 0.66 2 1 C-0.64 3.97 -3.28 6.94 -6 10 C-6.99 9.34 -7.98 8.68 -9 8 C-8.34 8 -7.68 8 -7 8 C-7 7.34 -7 6.68 -7 6 C-5.46875 4.4921875 -5.46875 4.4921875 -3.5 2.875 C-2.8503125 2.33617187 -2.200625 1.79734375 -1.53125 1.2421875 C-0.77328125 0.62730469 -0.77328125 0.62730469 0 0 Z " fill="#D5D5D5" transform="translate(87,169)"/>
<path d="M0 0 C3.68754757 0.49831724 5.60490662 1.10067643 8 4 C7.01 4.99 6.02 5.98 5 7 C5 5.68 5 4.36 5 3 C3.35 2.67 1.7 2.34 0 2 C0 1.34 0 0.68 0 0 Z " fill="#B5BBA9" transform="translate(144,86)"/>
<path d="M0 0 C-0.99 0.66 -1.98 1.32 -3 2 C-3.33 2.99 -3.66 3.98 -4 5 C-4.66 4.67 -5.32 4.34 -6 4 C-6 3.34 -6 2.68 -6 2 C-7.65 2.33 -9.3 2.66 -11 3 C-10 1 -10 1 -7.1875 -0.1875 C-4.14038924 -0.96421451 -2.86250637 -1.10096399 0 0 Z " fill="#2C2C2D" transform="translate(190,43)"/>
<path d="M0 0 C0.6875 1.75 0.6875 1.75 1 4 C-0.0625 6.1875 -0.0625 6.1875 -2 8 C-5.1875 8.75 -5.1875 8.75 -8 9 C-5.74259377 6.66475218 -3.7194239 4.81294927 -1 3 C-0.67 2.01 -0.34 1.02 0 0 Z " fill="#7D9E51" transform="translate(196,56)"/>
<path d="M0 0 C-0.99 1.485 -0.99 1.485 -2 3 C-5.3 2.34 -8.6 1.68 -12 1 C-12 0.67 -12 0.34 -12 0 C-7.74433453 -1.16063604 -4.3164922 -0.76173392 0 0 Z " fill="#D2DFBE" transform="translate(137,58)"/>
<path d="M0 0 C1.5 1.1875 1.5 1.1875 3 3 C3.1875 5.6875 3.1875 5.6875 3 8 C2.01 7.67 1.02 7.34 0 7 C-1.17755913 4.05610218 -1.03348696 3.10046087 0 0 Z " fill="#C1CFB0" transform="translate(144,64)"/>
<path d="M0 0 C1.98 0 3.96 0 6 0 C1.25 4.875 1.25 4.875 -1 6 C-0.67 4.02 -0.34 2.04 0 0 Z " fill="#8EAA63" transform="translate(175,64)"/>
<path d="M0 0 C2.92824652 2.92824652 4.27239967 5.2979993 6 9 C5.01 9 4.02 9 3 9 C2.01 6.03 1.02 3.06 0 0 Z " fill="#D7E7C0" transform="translate(106,65)"/>
<path d="M0 0 C0.66 0 1.32 0 2 0 C2.33 1.32 2.66 2.64 3 4 C1.35 4.33 -0.3 4.66 -2 5 C-2.33 4.34 -2.66 3.68 -3 3 C-2.34 3 -1.68 3 -1 3 C-0.67 2.01 -0.34 1.02 0 0 Z " fill="#0C0D0A" transform="translate(203,37)"/>
<path d="M0 0 C0.33 0.66 0.66 1.32 1 2 C2.97888961 2.72693904 4.97954558 3.39816251 7 4 C7 4.33 7 4.66 7 5 C4.03 5 1.06 5 -2 5 C-1.34 3.35 -0.68 1.7 0 0 Z " fill="#CBCBCB" transform="translate(161,179)"/>
<path d="M0 0 C0.66 0.33 1.32 0.66 2 1 C1.0479279 2.00596297 0.08812654 3.00461563 -0.875 4 C-1.40867188 4.556875 -1.94234375 5.11375 -2.4921875 5.6875 C-4 7 -4 7 -6 7 C-4.60667426 3.63279613 -3.0210714 2.0140476 0 0 Z " fill="#3E3E3E" transform="translate(219,153)"/>
<path d="M0 0 C2.25 0.25 2.25 0.25 4 1 C4 1.66 4 2.32 4 3 C1.36 3.33 -1.28 3.66 -4 4 C-2.25 1.9375 -2.25 1.9375 0 0 Z " fill="#93B562" transform="translate(178,73)"/>
<path d="M0 0 C0.33 0 0.66 0 1 0 C0.67 2.97 0.34 5.94 0 9 C-2 6 -2 6 -1.6875 3.375 C-1 1 -1 1 0 0 Z " fill="#D4DEC1" transform="translate(175,58)"/>
</svg>
